<svg xmlns="http://www.w3.org/2000/svg" viewBox="0 0 96 96" role="img" aria-label="Ved logo">
  <defs>
    <linearGradient id="ved-bg" x1="14" x2="82" y1="10" y2="86" gradientUnits="userSpaceOnUse">
      <stop offset="0" stop-color="#2358e6"/>
      <stop offset="1" stop-color="#101826"/>
    </linearGradient>
    <linearGradient id="ved-accent" x1="28" x2="72" y1="20" y2="76" gradientUnits="userSpaceOnUse">
      <stop offset="0" stop-color="#8fd3ff"/>
      <stop offset="1" stop-color="#34a853"/>
    </linearGradient>
  </defs>
  <path fill="url(#ved-bg)" d="M14 18c0-5.5 4.5-10 10-10h48c5.5 0 10 4.5 10 10v39.6c0 5.5-4.5 10-10 10H50.4L32.8 84.3c-2.8 2.7-7.5.7-7.5-3.2V67.6H24c-5.5 0-10-4.5-10-10V18Z"/>
  <path fill="#fff" d="M30.3 25.5h10.4l8.5 25.1 8.6-25.1h10.1L54.4 61.8H43.8L30.3 25.5Z"/>
  <path fill="url(#ved-accent)" d="M66.2 23.8a6 6 0 1 1 0 12.1 6 6 0 0 1 0-12.1ZM74.1 41.3a4.2 4.2 0 1 1 0 8.4 4.2 4.2 0 0 1 0-8.4Z"/>
</svg>
