<svg xmlns="http://www.w3.org/2000/svg" viewBox="0 0 96 96" role="img" aria-label="Ved AI logo">
  <defs>
    <linearGradient id="vedBadge" x1="18" y1="12" x2="78" y2="84" gradientUnits="userSpaceOnUse">
      <stop offset="0" stop-color="#6c63ff"/>
      <stop offset="0.52" stop-color="#3867f6"/>
      <stop offset="1" stop-color="#09b38f"/>
    </linearGradient>
    <linearGradient id="vedEdge" x1="24" y1="18" x2="72" y2="78" gradientUnits="userSpaceOnUse">
      <stop offset="0" stop-color="#ffffff" stop-opacity="0.7"/>
      <stop offset="1" stop-color="#ffffff" stop-opacity="0.12"/>
    </linearGradient>
    <filter id="vedShadow" x="4" y="4" width="88" height="88" color-interpolation-filters="sRGB">
      <feDropShadow dx="0" dy="10" stdDeviation="8" flood-color="#23345f" flood-opacity="0.26"/>
    </filter>
  </defs>
  <path filter="url(#vedShadow)" fill="url(#vedBadge)" d="M48 8 80 22.5 88 57.8 65.8 86H30.2L8 57.8l8-35.3L48 8Z"/>
  <path fill="none" stroke="url(#vedEdge)" stroke-width="2" d="M48 13.2 75.8 25.8l6.9 30.4-19.3 24.5H32.6L13.3 56.2l6.9-30.4L48 13.2Z"/>
  <path fill="#ffffff" d="M24.2 30.2h13.1l10.9 31.2 11-31.2h12.6L54.5 72.1H41.8L24.2 30.2Z"/>
  <path fill="#c8fff1" d="M69.7 21.8a5.9 5.9 0 1 1 0 11.8 5.9 5.9 0 0 1 0-11.8ZM76.3 43.4a3.7 3.7 0 1 1 0 7.4 3.7 3.7 0 0 1 0-7.4Z"/>
  <path fill="#ffffff" fill-opacity="0.7" d="M25.2 23.4a2.6 2.6 0 1 1 0 5.2 2.6 2.6 0 0 1 0-5.2Z"/>
</svg>
